<?xml version="1.0" standalone="no"?>
<!DOCTYPE svg PUBLIC "-//W3C//DTD SVG 20010904//EN"
 "http://www.w3.org/TR/2001/REC-SVG-20010904/DTD/svg10.dtd">
<svg version="1.0" xmlns="http://www.w3.org/2000/svg"
 width="700.000000pt" height="700.000000pt" viewBox="0 0 700.000000 700.000000"
 preserveAspectRatio="xMidYMid meet">
<metadata>
Created by potrace 1.11, written by Peter Selinger 2001-2013
</metadata>
<g transform="translate(0.000000,700.000000) scale(0.100000,-0.100000)"
fill="#000000" stroke="none">
<path d="M2086 6843 c-1 -1 -432 -3 -957 -4 l-954 -1 0 -3342 0 -3341 2153 0
2153 0 0 1187 -1 1187 398 -4 c601 -5 815 -7 837 -6 20 1 20 8 19 1676 0 921
-2 1677 -5 1679 -2 2 -69 -52 -149 -121 -80 -68 -167 -143 -194 -166 -27 -23
-102 -87 -166 -142 -64 -55 -140 -121 -170 -147 -171 -145 -1215 -1040 -1265
-1083 -33 -29 -100 -87 -149 -128 l-90 -77 -35 27 c-20 15 -40 32 -46 38 -5 6
-35 31 -65 56 -30 24 -66 54 -80 66 -14 11 -191 160 -395 329 -203 169 -375
313 -381 318 -7 6 -29 25 -50 43 -22 17 -49 39 -61 50 -12 10 -30 25 -40 33
-10 8 -45 38 -78 65 -67 56 -81 68 -145 120 -25 21 -67 57 -95 80 -27 23 -122
102 -210 175 -88 72 -171 141 -185 154 -14 12 -50 41 -80 66 -30 24 -59 48
-65 54 -5 6 -31 28 -57 49 -26 21 -53 43 -60 50 -37 35 -119 99 -123 96 -2 -3
-7 -787 -10 -1744 -4 -957 -7 -1953 -8 -2214 -2 -368 1 -475 10 -478 21 -8
435 -9 439 -1 4 7 7 460 15 2791 2 372 5 677 7 677 4 0 135 -106 187 -152 16
-14 104 -87 195 -163 91 -75 176 -146 190 -157 31 -26 71 -60 136 -115 27 -22
256 -213 509 -424 253 -210 462 -385 465 -389 16 -21 125 -98 130 -91 3 4 149
131 325 281 176 151 331 284 345 296 14 12 63 55 110 95 133 112 192 163 204
174 6 6 72 62 146 125 74 63 137 117 140 120 6 7 409 351 431 368 15 12 17
-61 17 -943 0 -702 -3 -955 -12 -956 -6 0 -114 0 -241 1 -126 1 -403 2 -615 3
l-385 2 -1 -1185 c-1 -652 -2 -1187 -3 -1190 -1 -4 -3331 -5 -3378 -1 -10 1
-13 585 -13 2886 0 1587 1 2885 3 2886 1 0 1292 3 2870 6 l2867 4 0 -2220 0
-2221 -545 0 c-512 0 -545 -1 -546 -17 -4 -93 0 -425 5 -431 8 -7 1511 -12
1532 -5 8 3 11 757 10 2676 l-1 2672 -2368 0 c-1303 0 -2370 -1 -2371 -2z"/>
</g>
</svg>
