<?xml version="1.0" encoding="utf-8"?><!-- Generator: Adobe Illustrator 18.0.0, SVG Export Plug-In . SVG Version: 6.00 Build 0) --><!DOCTYPE svg PUBLIC "-//W3C//DTD SVG 1.1//EN" "http://www.w3.org/Graphics/SVG/1.1/DTD/svg11.dtd"><svg version="1.1" id="Layer_1" xmlns="http://www.w3.org/2000/svg" xmlns:xlink="http://www.w3.org/1999/xlink" x="0px" y="0px" width="96px" height="96px" viewBox="-20 -20 136 136" enable-background="new 0 0 96 96" xml:space="preserve"><g id="Label"></g><g id="Icon"><g><g><g><g><g><defs><path id="SVGID_1_" d="M64,0H32L0,96l23.4,0c3.4,0,6.4-1.4,8.6-3.7c1.2-1.2,2.1-2.7,2.7-4.3c0,0,0,0,0,0L48,48l13.3,40	c0,0,0,0,0,0c0.6,1.6,1.5,3.1,2.7,4.3c2.2,2.2,5.2,3.7,8.6,3.7L96,96L64,0z"/></defs><clipPath id="SVGID_2_"><use xlink:href="#SVGID_1_" overflow="visible"/></clipPath><path clip-path="url(#SVGID_2_)" fill="#0F9D58" d="M64,0l32,96l-23.4,0c-3.4,0-6.4-1.4-8.6-3.7c-1.2-1.2-2.1-2.7-2.7-4.3	c0,0,0,0,0,0L32,0H64z"/></g></g><g><g><defs><path id="SVGID_3_" d="M64,0H32L0,96l23.4,0c3.4,0,6.4-1.4,8.6-3.7c1.2-1.2,2.1-2.7,2.7-4.3c0,0,0,0,0,0L48,48l13.3,40	c0,0,0,0,0,0c0.6,1.6,1.5,3.1,2.7,4.3c2.2,2.2,5.2,3.7,8.6,3.7L96,96L64,0z"/></defs><clipPath id="SVGID_4_"><use xlink:href="#SVGID_3_" overflow="visible"/></clipPath><linearGradient id="SVGID_5_" gradientUnits="userSpaceOnUse" x1="-2178.176" y1="-394.7787" x2="-2121.9453" y2="-376.3759" gradientTransform="matrix(1 0 0 1 2229.395 433.3594)"><stop offset="0" style="stop-color:#263238;stop-opacity:0.2"/><stop offset="1" style="stop-color:#263238;stop-opacity:0"/></linearGradient><polygon clip-path="url(#SVGID_4_)" fill="url(#SVGID_5_)" points="64,0 48,48 96,96	"/></g></g><g><g><defs><path id="SVGID_6_" d="M64,0H32L0,96l23.4,0c3.4,0,6.4-1.4,8.6-3.7c1.2-1.2,2.1-2.7,2.7-4.3c0,0,0,0,0,0L48,48l13.3,40	c0,0,0,0,0,0c0.6,1.6,1.5,3.1,2.7,4.3c2.2,2.2,5.2,3.7,8.6,3.7L96,96L64,0z"/></defs><clipPath id="SVGID_7_"><use xlink:href="#SVGID_6_" overflow="visible"/></clipPath><g clip-path="url(#SVGID_7_)"><g><polygon fill="#FFFFFF" fill-opacity="0.24" points="0,96 0.5,96 0.5,96	"/><polygon opacity="0.2" fill="#263238" enable-background="new " points="0,96 0,96 0,96	"/><polygon opacity="0.2" fill="#263238" enable-background="new " points="0.7,96 0.7,96 0.7,96	"/><polygon opacity="0.2" fill="#263238" enable-background="new " points="0,96 0.2,95.5 0.2,95.5 0,96 0,96 0,96	"/><line fill="none" x1="40.1" y1="55.6" x2="40" y2="55.8"/></g></g></g></g><g><g><defs><path id="SVGID_8_" d="M64,0H32L0,96l23.4,0c3.4,0,6.4-1.4,8.6-3.7c1.2-1.2,2.1-2.7,2.7-4.3c0,0,0,0,0,0L48,48l13.3,40	c0,0,0,0,0,0c0.6,1.6,1.5,3.1,2.7,4.3c2.2,2.2,5.2,3.7,8.6,3.7L96,96L64,0z"/></defs><clipPath id="SVGID_9_"><use xlink:href="#SVGID_8_" overflow="visible"/></clipPath><g clip-path="url(#SVGID_9_)"><g><path fill="#4285F5" d="M32,0L0,96l23.4,0c3.4,0,6.4-1.4,8.6-3.7c1.2-1.2,2.1-2.7,2.7-4.3c0,0,0,0,0,0L64,0H32z"/></g></g></g></g><g><g><defs><path id="SVGID_10_" d="M64,0H32L0,96l23.4,0c3.4,0,6.4-1.4,8.6-3.7c1.2-1.2,2.1-2.7,2.7-4.3c0,0,0,0,0,0L48,48l13.3,40	c0,0,0,0,0,0c0.6,1.6,1.5,3.1,2.7,4.3c2.2,2.2,5.2,3.7,8.6,3.7L96,96L64,0z"/></defs><clipPath id="SVGID_11_"><use xlink:href="#SVGID_10_" overflow="visible"/></clipPath><polygon clip-path="url(#SVGID_11_)" fill="#FFFFFF" fill-opacity="0.2" points="63.7,0.5 64,0 32,0 0,96 0.3,95.5 32,0.5	"/></g></g><g><g><defs><path id="SVGID_12_" d="M64,0H32L0,96l23.4,0c3.4,0,6.4-1.4,8.6-3.7c1.2-1.2,2.1-2.7,2.7-4.3c0,0,0,0,0,0L48,48l13.3,40	c0,0,0,0,0,0c0.6,1.6,1.5,3.1,2.7,4.3c2.2,2.2,5.2,3.7,8.6,3.7L96,96L64,0z"/></defs><clipPath id="SVGID_13_"><use xlink:href="#SVGID_12_" overflow="visible"/></clipPath><path clip-path="url(#SVGID_13_)" fill="#263238" fill-opacity="0.2" d="M34.7,87.5C34.7,87.6,34.7,87.6,34.7,87.5	c-0.6,1.6-1.5,3.1-2.7,4.3c-2.2,2.2-5.2,3.7-8.6,3.7H0.3L0,96l23.4,0c3.4,0,6.4-1.4,8.6-3.7c1.2-1.2,2.1-2.7,2.7-4.3	c0,0,0,0,0,0L64,0l-0.3,0.5L34.7,87.5z"/></g></g><g><g><defs><path id="SVGID_14_" d="M64,0H32L0,96l23.4,0c3.4,0,6.4-1.4,8.6-3.7c1.2-1.2,2.1-2.7,2.7-4.3c0,0,0,0,0,0L48,48l13.3,40	c0,0,0,0,0,0c0.6,1.6,1.5,3.1,2.7,4.3c2.2,2.2,5.2,3.7,8.6,3.7L96,96L64,0z"/></defs><clipPath id="SVGID_15_"><use xlink:href="#SVGID_14_" overflow="visible"/></clipPath><g clip-path="url(#SVGID_15_)"><path fill="#263238" fill-opacity="0.1" d="M34.7,88.1c-0.6,1.6-1.5,3.1-2.7,4.3c-2.2,2.2-5.2,3.7-8.6,3.7L0.2,96L0,96.5	l23.4,0c3.4,0,6.4-1.4,8.6-3.7c1.2-1.2,2.1-2.7,2.7-4.3c0,0,29.4-88.3,29.4-88.3L64,0L34.7,88.1z"/></g></g></g><g><g><defs><path id="SVGID_16_" d="M64,0H32L0,96l23.4,0c3.4,0,6.4-1.4,8.6-3.7c1.2-1.2,2.1-2.7,2.7-4.3c0,0,0,0,0,0L48,48l13.3,40	c0,0,0,0,0,0c0.6,1.6,1.5,3.1,2.7,4.3c2.2,2.2,5.2,3.7,8.6,3.7L96,96L64,0z"/></defs><clipPath id="SVGID_17_"><use xlink:href="#SVGID_16_" overflow="visible"/></clipPath><path clip-path="url(#SVGID_17_)" fill="#263238" fill-opacity="0.2" d="M95.8,95.5L64,0v0.5l31.7,95l-23.2,0	c-3.4,0-6.4-1.4-8.6-3.7c-1.2-1.2-2.1-2.7-2.7-4.3c0,0,0,0,0,0l0.2,0.5c0,0,0,0,0,0c0.6,1.6,1.5,3.1,2.7,4.3	c2.2,2.2,5.2,3.7,8.6,3.7H96L95.8,95.5z"/></g></g></g><g><g opacity="0.1"><radialGradient id="SVGID_18_" cx="-2197.5742" cy="-433.3311" r="115.1945" gradientTransform="matrix(1 0 0 1 2229.395 433.3594)" gradientUnits="userSpaceOnUse"><stop offset="0" style="stop-color:#FFFFFF"/><stop offset="1" style="stop-color:#FFFFFF;stop-opacity:0"/></radialGradient><path fill="url(#SVGID_18_)" d="M64,0H32L0,96l23.4,0c3.4,0,6.4-1.4,8.6-3.7c1.2-1.2,2.1-2.7,2.7-4.3c0,0,0,0,0,0L48,48	l13.3,40c0,0,0,0,0,0c0.6,1.6,1.5,3.1,2.7,4.3c2.2,2.2,5.2,3.7,8.6,3.7L96,96L64,0z"/></g></g></g><rect fill="none" width="96" height="96"/></g></g></svg>