<?xml version="1.0" encoding="iso-8859-1"?><!-- Generator: Adobe Illustrator 16.0.0, SVG Export Plug-In . SVG Version: 6.00 Build 0) --><!DOCTYPE svg PUBLIC "-//W3C//DTD SVG 1.1//EN" "http://www.w3.org/Graphics/SVG/1.1/DTD/svg11.dtd"><svg version="1.1" id="Layer_1" xmlns="http://www.w3.org/2000/svg" xmlns:xlink="http://www.w3.org/1999/xlink" x="0px" y="0px" width="192.756px" height="192.756px" viewBox="0 0 192.756 192.756" style="enable-background:new 0 0 192.756 192.756;" xml:space="preserve"><g><polygon style="fill-rule:evenodd;clip-rule:evenodd;fill:#FFFFFF;" points="0,0 192.756,0 192.756,192.756 0,192.756 0,0	"/><polygon style="fill-rule:evenodd;clip-rule:evenodd;fill:#CF4044;" points="45.248,140.84 45.248,51.917 2.834,51.917	2.834,140.84 45.248,140.84 45.248,140.84	"/><polygon style="fill-rule:evenodd;clip-rule:evenodd;fill:#CF4044;" points="189.922,140.84 189.922,51.917 147.65,51.917	147.65,140.84 189.922,140.84 189.922,140.84	"/><polygon style="fill-rule:evenodd;clip-rule:evenodd;fill:#CF4044;" points="95.973,136.934 92.401,136.934 92.401,119.859	73.23,121.645 76.802,114.811 55.988,99.545 61.513,96.449 56.155,81.851 67.539,84.614 71.753,78.755 86.233,93.211	78.588,65.419 87.686,70.611 95.973,55.655 104.26,70.611 113.523,65.419 105.713,93.211 120.334,78.755 124.574,84.614	135.791,81.851 130.432,96.449 136.125,99.545 115.145,114.811 118.883,121.645 99.688,119.859 99.688,136.934 95.973,136.934	95.973,136.934	"/></g></svg>