<?xml version="1.0" ?><!DOCTYPE svg  PUBLIC '-//W3C//DTD SVG 1.1//EN'  'http://www.w3.org/Graphics/SVG/1.1/DTD/svg11.dtd'><svg id="Lager_1" style="enable-background:new 0 0 128 128;" version="1.1" viewBox="0 0 128 128" xml:space="preserve" xmlns="http://www.w3.org/2000/svg" xmlns:xlink="http://www.w3.org/1999/xlink"><circle cx="64" cy="64" r="50" style="fill:#2E372E;"/><g><path d="M40.7,44c-3.6,0-7.1,0.3-9.8,0.8l-0.4,0.1v38.5l0.4,0.1c2.4,0.3,5.2,0.5,8.3,0.5   c6.7,0,12-1.9,15.4-5.4c3.5-3.6,5.3-9,5.3-15.6c0-6.3-1.8-11.1-5.3-14.5C51.3,45.5,46.9,44,40.7,44z M49.3,73.9   c-2,2.4-5,3.5-8.8,3.5l0,0h-0.1c-1,0-2.1,0-2.9-0.1V50.7c0.6-0.1,1.8-0.3,3.7-0.3c3.4,0,6.1,1,8,2.9c2.2,2.2,3.3,5.5,3.3,9.9   C52.5,67.9,51.4,71.5,49.3,73.9z" style="fill:#84E403;"/><path d="M90.5,54.9l-2.7,12.7c-0.5,2.6-0.9,4.7-1.2,6.7c-0.4-2-0.9-4.2-1.4-6.7L82,54.9h-5.7L72.8,69   c-0.4,1.7-0.9,3.5-1.2,5.3c-0.4-2.2-0.8-4.4-1.1-6.5l-2.6-13h-7.2L68,83.6h6.4L77.5,72c0.5-1.8,1-3.9,1.4-6.3   c0.4,2.2,0.8,4.2,1.4,6.3l3,11.6h6.4l7.8-28.7C97.5,54.9,90.5,54.9,90.5,54.9z" style="fill:#84E403;"/></g></svg>